<?xml version="1.0" encoding="utf-8"?>
<!-- Generator: Adobe Illustrator 24.3.0, SVG Export Plug-In . SVG Version: 6.00 Build 0)  -->
<svg version="1.1" id="Layer_1" xmlns="http://www.w3.org/2000/svg" xmlns:xlink="http://www.w3.org/1999/xlink" x="0px" y="0px"
	 viewBox="0 0 427 427" style="enable-background:new 0 0 427 427;" xml:space="preserve">
<style type="text/css">
	.st0{fill:#D8D8D7;}
</style>
<path class="st0" d="M272.4,154.7c-5.52,0-10,4.48-10,10v189c0,5.52,4.48,10,10,10s10-4.48,10-10v-189
	C282.4,159.18,277.92,154.7,272.4,154.7z"/>
<path class="st0" d="M154.4,154.7c-5.52,0-10,4.48-10,10v189c0,5.52,4.48,10,10,10s10-4.48,10-10v-189
	C164.4,159.18,159.92,154.7,154.4,154.7z"/>
<path class="st0" d="M68.4,127.12V373.5c0,14.56,5.34,28.24,14.67,38.05c9.29,9.84,22.21,15.43,35.73,15.45H308
	c13.53-0.02,26.45-5.61,35.73-15.45c9.33-9.81,14.67-23.49,14.67-38.05V127.12c18.54-4.92,30.56-22.84,28.08-41.86
	C383.99,66.23,367.79,52,348.6,52h-51.2V39.5c0.06-10.51-4.1-20.61-11.54-28.03C278.42,4.05,268.31-0.09,257.8,0H169
	c-10.51-0.09-20.62,4.05-28.06,11.47c-7.44,7.43-11.6,17.52-11.54,28.03V52H78.2c-19.19,0-35.39,14.23-37.88,33.26
	C37.84,104.29,49.86,122.2,68.4,127.12z M308,407H118.8c-17.1,0-30.4-14.69-30.4-33.5V128h250v245.5C338.4,392.31,325.1,407,308,407
	z M149.4,39.5c-0.07-5.21,1.98-10.22,5.68-13.89c3.69-3.68,8.71-5.7,13.93-5.61h88.8c5.21-0.09,10.23,1.93,13.93,5.61
	c3.7,3.67,5.74,8.69,5.68,13.89V52h-128V39.5z M78.2,72h270.4c9.94,0,18,8.06,18,18s-8.06,18-18,18H78.2c-9.94,0-18-8.06-18-18
	S68.26,72,78.2,72z"/>
<path class="st0" d="M213.4,154.7c-5.52,0-10,4.48-10,10v189c0,5.52,4.48,10,10,10s10-4.48,10-10v-189
	C223.4,159.18,218.92,154.7,213.4,154.7z"/>
</svg>
