<?xml version="1.0" encoding="utf-8"?>
<!-- Generator: Adobe Illustrator 24.3.0, SVG Export Plug-In . SVG Version: 6.00 Build 0)  -->
<svg version="1.1" id="Layer_1" xmlns="http://www.w3.org/2000/svg" xmlns:xlink="http://www.w3.org/1999/xlink" x="0px" y="0px"
	 viewBox="0 0 401 401" style="enable-background:new 0 0 401 401;" xml:space="preserve">
<style type="text/css">
	.st0{fill:#D8D8D7;}
</style>
<path class="st0" d="M370.11,251.91c-5.52,0-9.99,4.47-9.99,9.99v88.67c-0.02,16.54-13.42,29.95-29.96,29.96H49.93
	c-16.54-0.02-29.94-13.42-29.96-29.96V90.32c0.02-16.54,13.42-29.94,29.96-29.96h88.67c5.52,0,9.99-4.47,9.99-9.99
	c0-5.51-4.47-9.99-9.99-9.99H49.93C22.37,40.41,0.03,62.75,0,90.32v260.25c0.03,27.57,22.37,49.9,49.93,49.93h280.22
	c27.57-0.03,49.9-22.37,49.93-49.93v-88.68C380.09,256.38,375.62,251.91,370.11,251.91z"/>
<path class="st0" d="M376.14,14.68c-17.55-17.55-46.01-17.55-63.56,0L134.41,192.86c-1.22,1.22-2.1,2.73-2.56,4.4l-23.43,84.59
	c-0.96,3.47,0.02,7.18,2.56,9.73c2.55,2.54,6.26,3.52,9.73,2.56l84.59-23.43c1.66-0.46,3.18-1.34,4.4-2.56L387.86,89.96
	c17.52-17.56,17.52-45.99,0-63.56L376.14,14.68z M156.17,199.35L301.99,53.52l47.03,47.03L203.19,246.38L156.17,199.35z
	 M146.77,218.2l37.57,37.58l-51.97,14.4L146.77,218.2z M373.74,75.84l-10.59,10.59L316.11,39.4l10.6-10.59
	c9.75-9.75,25.56-9.75,35.31,0l11.72,11.72C383.47,50.29,383.47,66.08,373.74,75.84z"/>
</svg>
