<?xml version="1.0" encoding="utf-8"?>
<!-- Generator: Adobe Illustrator 24.3.0, SVG Export Plug-In . SVG Version: 6.00 Build 0)  -->
<svg version="1.1" id="Layer_1" xmlns="http://www.w3.org/2000/svg" xmlns:xlink="http://www.w3.org/1999/xlink" x="0px" y="0px"
	 viewBox="0 0 400 200" style="enable-background:new 0 0 400 200;" xml:space="preserve">
<style type="text/css">
	.st0{fill:#8A00A7;}
</style>
<path class="st0" d="M40.23,56.92l-0.28-35.04l11.26,0.42l-1.27,82.47l74.16,2.11c1.5,0.47,2.25,1.27,2.25,2.39s-0.7,2.3-2.11,3.52
	c-2.72,2.44-5.82,3.66-9.29,3.66c-0.84,0-1.74-0.09-2.67-0.28l-75.57-0.7C39.06,106.74,40.23,87.23,40.23,56.92z"/>
<path class="st0" d="M136.07,91.68c0-11.07,4.78-19.98,14.35-26.74c7.6-5.35,16.75-8.58,27.44-9.71c0.56,0,1.88,0,3.94,0
	s4.83,0.61,8.3,1.83c7.69,2.63,12.95,7.27,15.76,13.93c1.13,2.63,1.69,4.86,1.69,6.68c0,1.83-0.05,3.12-0.14,3.87
	c0,11.73-4.46,20.97-13.37,27.72c-8.26,6.19-18.58,9.29-30.96,9.29c-8.91,0-15.64-2.06-20.19-6.19
	C138.34,108.24,136.07,101.35,136.07,91.68z M145.78,95.06c0,5.82,1.55,9.76,4.64,11.82c2.35,1.5,6.29,2.25,11.82,2.25
	c5.54,0,10.41-0.42,14.64-1.27c4.22-0.84,7.97-2.3,11.26-4.36c7.04-4.5,10.55-11.49,10.55-20.97c0-5.63-1.5-10.23-4.5-13.79
	c-3.28-3.85-7.6-5.77-12.95-5.77c-3.66,0.66-7.34,1.36-11.05,2.11c-3.71,0.75-7.2,2.2-10.48,4.36
	C152.58,74.04,147.93,82.58,145.78,95.06z"/>
<path class="st0" d="M254.28,178.65l-1.97-0.14c-2.81,0-5.82,0.19-9.01,0.56h-5.35c-5.63,0-10.04-1.08-13.23-3.24
	c-1.69-1.13-2.53-2.81-2.53-5.07l32.37-1.55c9.94-0.28,14.92-5.63,14.92-16.04c0-0.38,0-1.01,0-1.9s0-2.84,0-5.84l0.7-45.31
	c0-1.59-0.05-2.91-0.14-3.94c-15.2,14.17-29.83,21.25-43.91,21.25c-1.22,0-2.44-0.05-3.66-0.14c-6.29,0-9.43-2.77-9.43-8.3
	c0.19-4.32,1.45-9.08,3.8-14.28c2.35-5.21,5.37-10.23,9.08-15.06c3.71-4.83,7.9-9.17,12.59-13.02c7.22-5.91,14.21-8.87,20.97-8.87
	c7.88,0,14.35,4.17,19.42,12.52c1.5,22.33,2.25,38.18,2.25,47.57s-0.14,17.07-0.42,23.08c-0.28,6-0.91,11.49-1.9,16.46
	c-0.99,4.97-2.28,8.91-3.87,11.82c-1.59,2.91-3.47,5.02-5.63,6.33C265.77,177.62,260.75,178.65,254.28,178.65z M262.72,68.04
	c-1.13-0.38-2.7-0.56-4.71-0.56c-2.02,0-4.62,0.84-7.81,2.53s-6.24,3.87-9.15,6.54c-2.91,2.67-5.63,5.65-8.16,8.94
	c-6.19,8.07-9.29,14.49-9.29,19.28c0,1.5,0.42,2.63,1.27,3.38c0.66,0.38,1.48,0.56,2.46,0.56s2.42-0.16,4.29-0.49
	s4.43-1.17,7.67-2.53s6.59-3.12,10.06-5.28c3.47-2.16,6.61-4.55,9.43-7.18c6.57-6,9.85-11.87,9.85-17.59
	C268.63,72.17,266.66,69.64,262.72,68.04z"/>
<path class="st0" d="M291.43,91.68c0-11.07,4.78-19.98,14.35-26.74c7.6-5.35,16.75-8.58,27.44-9.71c0.56,0,1.88,0,3.94,0
	c2.06,0,4.83,0.61,8.3,1.83c7.69,2.63,12.95,7.27,15.76,13.93c1.13,2.63,1.69,4.86,1.69,6.68c0,1.83-0.05,3.12-0.14,3.87
	c0,11.73-4.46,20.97-13.37,27.72c-8.26,6.19-18.58,9.29-30.96,9.29c-8.91,0-15.64-2.06-20.19-6.19
	C293.7,108.24,291.43,101.35,291.43,91.68z M301.14,95.06c0,5.82,1.55,9.76,4.64,11.82c2.35,1.5,6.29,2.25,11.82,2.25
	s10.41-0.42,14.64-1.27c4.22-0.84,7.97-2.3,11.26-4.36c7.04-4.5,10.55-11.49,10.55-20.97c0-5.63-1.5-10.23-4.5-13.79
	c-3.28-3.85-7.6-5.77-12.95-5.77c-3.66,0.66-7.34,1.36-11.05,2.11s-7.2,2.2-10.48,4.36C307.94,74.04,303.3,82.58,301.14,95.06z"/>
</svg>
